<?xml version="1.0" encoding="UTF-8"?>
<!DOCTYPE svg PUBLIC "-//W3C//DTD SVG 1.1//EN" "http://www.w3.org/Graphics/SVG/1.1/DTD/svg11.dtd">
<!-- Creator: CorelDRAW 2020 (64-Bit) -->
<svg xmlns="http://www.w3.org/2000/svg" xml:space="preserve" width="2030px" height="535px" version="1.1" style="shape-rendering:geometricPrecision; text-rendering:geometricPrecision; image-rendering:optimizeQuality; fill-rule:evenodd; clip-rule:evenodd"
viewBox="0 0 2112.42 556.96"
 xmlns:xlink="http://www.w3.org/1999/xlink"
 xmlns:xodm="http://www.corel.com/coreldraw/odm/2003">
 <defs>
  <style type="text/css">
   <![CDATA[
    .fil0 {fill:#FFD531;fill-rule:nonzero}
    .fil1 {fill:#272424;fill-rule:nonzero}
   ]]>
  </style>
 </defs>
 <g id="Слой_x0020_1">
  <metadata id="CorelCorpID_0Corel-Layer"/>
  <polygon class="fil0" points="2112.42,556.96 0,556.96 0,0 2112.42,0 "/>
  <polygon class="fil1" points="355.73,180.98 275.13,375.98 322.38,375.98 402.98,180.98 "/>
  <polygon class="fil1" points="289.87,180.98 209.27,375.98 256.51,375.98 337.11,180.98 "/>
  <polygon class="fil1" points="271.24,180.98 208.62,180.98 208.62,332.47 "/>
  <polygon class="fil1" points="341,375.98 403.63,375.98 403.63,224.48 "/>
  <polygon class="fil1" points="545.83,292.74 593.98,230.78 562.28,230.78 517.76,286.44 517.76,230.78 480.49,230.78 480.49,375.98 517.76,375.98 517.76,318.15 556.96,375.98 600.04,375.98 "/>
  <path class="fil1" d="M717.65 375.98l44.29 0 -58.57 -145.2 -29.52 0 -62.19 145.2 25.41 0 15 -37.02 51.55 0 14.03 37.02zm-21.78 -56.87l-35.57 0 18.39 -45.74 17.18 45.74z"/>
  <path class="fil1" d="M850.87 277c0,19.61 -15.24,31.95 -32.42,31.95l-4.6 0 0 -59.77 4.6 0c17.18,0 32.42,8.22 32.42,27.82zm-13.31 -46.22l-61.22 0 0 145.2 37.51 0 0 -48.4 23.71 0c29.53,0 55.66,-18.15 55.66,-50.09 0,-32.19 -26.37,-46.71 -55.66,-46.71z"/>
  <polygon class="fil1" points="910.16,375.98 947.67,375.98 947.67,230.78 910.16,230.78 "/>
  <polygon class="fil1" points="1080.5,230.78 969.42,230.78 969.42,250.63 1006.45,250.63 1006.45,375.98 1043.96,375.98 1043.96,250.63 1080.5,250.63 "/>
  <path class="fil1" d="M1178.09 375.98l44.28 0 -58.56 -145.2 -29.52 0 -62.2 145.2 25.42 0 15 -37.02 51.54 0 14.04 37.02zm-21.78 -56.87l-35.58 0 18.4 -45.74 17.18 45.74z"/>
  <polygon class="fil1" points="1274.28,230.78 1236.78,230.78 1236.78,375.98 1332.85,375.98 1332.85,356.14 1274.28,356.14 "/>
  <path class="fil1" d="M1433.54 295.64c12.58,-5.08 20.57,-14.28 20.57,-30.49 0,-30.01 -27.11,-34.36 -51.06,-34.36l-53.24 0 0 145.19 61.46 0c26.38,0 54.94,-13.07 54.94,-42.35 0,-20.08 -13.79,-34.84 -32.67,-37.99zm-36.3 61.95l-9.92 0 0 -52.75 9.92 0c12.82,0 29.52,8.23 29.52,25.89 0,17.66 -16.7,26.86 -29.52,26.86zm-9.92 -107.93l3.14 0c14.04,0 30.25,2.42 30.25,17.67 0,15 -16.21,18.63 -30.25,18.63l-3.14 0 0 -36.3z"/>
  <path class="fil1" d="M1574.55 375.98l44.29 0 -58.57 -145.2 -29.52 0 -62.19 145.2 25.41 0 15 -37.02 51.55 0 14.03 37.02zm-21.78 -56.87l-35.58 0 18.4 -45.74 17.18 45.74z"/>
  <polygon class="fil1" points="1737.05,320.32 1671.95,230.78 1635.66,230.78 1635.66,375.98 1658.65,375.98 1658.65,273.38 1731.49,375.98 1760.03,375.98 1760.03,230.78 1737.05,230.78 "/>
  <polygon class="fil1" points="1849.6,292.74 1897.75,230.78 1866.05,230.78 1821.53,286.44 1821.53,230.78 1784.26,230.78 1784.26,375.98 1821.53,375.98 1821.53,318.15 1860.73,375.98 1903.81,375.98 "/>
 </g>
</svg>
